<svg width="64" height="64" viewBox="0 0 64 64" fill="none" xmlns="http://www.w3.org/2000/svg">
<rect width="64" height="64" rx="7" fill="#34C759"/>
<g filter="url(#filter0_d_2_20)">
<rect x="35" y="35" width="24" height="24" rx="5" fill="white"/>
<path d="M51.5 51.5L47 47M47 47L42.5 42.5M47 47L51.5 42.5M47 47L42.5 51.5" stroke="#FF2D55" stroke-width="2" stroke-linecap="round" stroke-linejoin="round"/>
</g>
<g filter="url(#filter1_d_2_20)">
<rect x="20" y="20" width="24" height="24" rx="5" fill="white"/>
<path d="M37 32C37 32.5523 37.4477 33 38 33C38.5523 33 39 32.5523 39 32C39 31.4477 38.5523 31 38 31C37.4477 31 37 31.4477 37 32Z" stroke="#FF8D28" stroke-width="2" stroke-linecap="round" stroke-linejoin="round"/>
<path d="M31 32C31 32.5523 31.4477 33 32 33C32.5523 33 33 32.5523 33 32C33 31.4477 32.5523 31 32 31C31.4477 31 31 31.4477 31 32Z" stroke="#FF8D28" stroke-width="2" stroke-linecap="round" stroke-linejoin="round"/>
<path d="M25 32C25 32.5523 25.4477 33 26 33C26.5523 33 27 32.5523 27 32C27 31.4477 26.5523 31 26 31C25.4477 31 25 31.4477 25 32Z" stroke="#FF8D28" stroke-width="2" stroke-linecap="round" stroke-linejoin="round"/>
</g>
<g filter="url(#filter2_d_2_20)">
<rect x="5" y="5" width="24" height="24" rx="5" fill="white"/>
<path d="M11 17L15.2426 21.2426L23.727 12.7573" stroke="#34C759" stroke-width="2" stroke-linecap="round" stroke-linejoin="round"/>
</g>
<defs>
<filter id="filter0_d_2_20" x="35" y="35" width="24.5" height="24.5" filterUnits="userSpaceOnUse" color-interpolation-filters="sRGB">
<feFlood flood-opacity="0" result="BackgroundImageFix"/>
<feColorMatrix in="SourceAlpha" type="matrix" values="0 0 0 0 0 0 0 0 0 0 0 0 0 0 0 0 0 0 127 0" result="hardAlpha"/>
<feOffset dx="0.5" dy="0.5"/>
<feComposite in2="hardAlpha" operator="out"/>
<feColorMatrix type="matrix" values="0 0 0 0 0 0 0 0 0 0 0 0 0 0 0 0 0 0 0.25 0"/>
<feBlend mode="normal" in2="BackgroundImageFix" result="effect1_dropShadow_2_20"/>
<feBlend mode="normal" in="SourceGraphic" in2="effect1_dropShadow_2_20" result="shape"/>
</filter>
<filter id="filter1_d_2_20" x="20" y="20" width="24.5" height="24.5" filterUnits="userSpaceOnUse" color-interpolation-filters="sRGB">
<feFlood flood-opacity="0" result="BackgroundImageFix"/>
<feColorMatrix in="SourceAlpha" type="matrix" values="0 0 0 0 0 0 0 0 0 0 0 0 0 0 0 0 0 0 127 0" result="hardAlpha"/>
<feOffset dx="0.5" dy="0.5"/>
<feComposite in2="hardAlpha" operator="out"/>
<feColorMatrix type="matrix" values="0 0 0 0 0 0 0 0 0 0 0 0 0 0 0 0 0 0 0.25 0"/>
<feBlend mode="normal" in2="BackgroundImageFix" result="effect1_dropShadow_2_20"/>
<feBlend mode="normal" in="SourceGraphic" in2="effect1_dropShadow_2_20" result="shape"/>
</filter>
<filter id="filter2_d_2_20" x="5" y="5" width="24.5" height="24.5" filterUnits="userSpaceOnUse" color-interpolation-filters="sRGB">
<feFlood flood-opacity="0" result="BackgroundImageFix"/>
<feColorMatrix in="SourceAlpha" type="matrix" values="0 0 0 0 0 0 0 0 0 0 0 0 0 0 0 0 0 0 127 0" result="hardAlpha"/>
<feOffset dx="0.5" dy="0.5"/>
<feComposite in2="hardAlpha" operator="out"/>
<feColorMatrix type="matrix" values="0 0 0 0 0 0 0 0 0 0 0 0 0 0 0 0 0 0 0.25 0"/>
<feBlend mode="normal" in2="BackgroundImageFix" result="effect1_dropShadow_2_20"/>
<feBlend mode="normal" in="SourceGraphic" in2="effect1_dropShadow_2_20" result="shape"/>
</filter>
</defs>
</svg>
